<svg id="Layer_1" enable-background="new 0 0 512.003 512.003" height="512" viewBox="0 0 512.003 512.003" width="512" xmlns="http://www.w3.org/2000/svg" xmlns:xlink="http://www.w3.org/1999/xlink"><linearGradient id="SVGID_1_" gradientUnits="userSpaceOnUse" x1="0" x2="512.003" y1="256.002" y2="256.002"><stop offset="0" stop-color="#87f1fc"/><stop offset=".2557" stop-color="#7fd4fb"/><stop offset=".5295" stop-color="#78bcfb"/><stop offset=".7844" stop-color="#74aefa"/><stop offset="1" stop-color="#73a9fa"/></linearGradient><path d="m492.002 411.999c-11.045 0-19.999 8.955-19.999 20 0 10.685-4.16 20.729-11.715 28.284-7.556 7.555-17.6 11.716-28.284 11.716l-282.743.003c6.827-11.774 10.739-25.44 10.739-40.002v-351.997c0-22.091 17.909-40 40-40h232c22.056 0 40 17.944 40 40l.002 252c1.056 26.536 38.953 26.516 40 0l-.002-252c0-44.112-35.888-80-80-80h-232c-44.183 0-80 35.817-80 80v182h-40c-44.183 0-80 35.817-80 80v90.693c0 43.639 35.268 79.079 78.907 79.298.219.002 353.097.006 353.097.006 21.369 0 41.458-8.322 56.568-23.432s23.432-35.201 23.431-56.569c0-11.046-8.955-20-20.001-20zm-372.002 20.001c0 22.054-17.942 39.998-39.997 40h-.326c-21.908.001-39.677-17.758-39.677-39.666v-90.331c0-22.091 17.909-40 40-40h40zm311-174.997c0 11.046-8.954 20-20 20h-191c-26.536-1.056-26.516-38.953 0-40h191c11.046 0 20 8.954 20 20zm0-157c0-11.046-8.954-20-20-20h-191c-11.046 0-20 8.954-20 20v79c0 11.046 8.954 20 20 20h191c11.046 0 20-8.954 20-20zm-40 59h-151v-39h151zm20 196h-191c-26.536-1.056-26.516-38.953 0-40h191c26.536 1.056 26.516 38.954 0 40zm-90 37c26.536 1.056 26.516 38.953 0 40h-101c-26.536-1.056-26.516-38.953 0-40z" fill="url(#SVGID_1_)"/></svg>