<svg id="Layer_1" enable-background="new 0 0 512 512" height="512" viewBox="0 0 512 512" width="512" xmlns="http://www.w3.org/2000/svg" xmlns:xlink="http://www.w3.org/1999/xlink"><linearGradient id="SVGID_1_" gradientUnits="userSpaceOnUse" x1="0" x2="512" y1="256" y2="256"><stop offset="0" stop-color="#87f1fc"/><stop offset=".2557" stop-color="#7fd4fb"/><stop offset=".5295" stop-color="#78bcfb"/><stop offset=".7844" stop-color="#74aefa"/><stop offset="1" stop-color="#73a9fa"/></linearGradient><path d="m329.587 188.561-130.804 130.559c-2.331 2.326-4.051 5.192-5.008 8.343l-23.912 78.725c-4.629 14.977 9.462 29.339 24.476 25.086l80.725-22.361c3.323-.921 6.352-2.685 8.792-5.121l130.571-130.365c23.394-23.394 23.394-61.458 0-84.853-23.395-23.394-61.459-23.394-84.84-.013zm-70.271 183.208-40.611 11.25 11.886-39.131 95.095-94.917 28.289 28.289zm126.837-126.638-3.872 3.866-28.284-28.284 3.862-3.854c7.797-7.798 20.486-7.798 28.283 0 7.798 7.797 7.798 20.485.011 28.272zm85.847 86.869v-252c0-22.091-17.909-40-40-40h-257.013c-10.586 0-20.935 4.31-28.392 11.824l-97.234 98.176h80.639c11.046 0 20-8.954 20-20v-30c1.259-26.798 39.006-26.439 40 .479v29.521c0 33.137-26.863 60-60 60h-90v242c0 22.091 17.909 40 40 40h352c22.194 0 39.717-18.069 40.002-40.261.141-10.969 9.112-19.81 20.131-19.738 11.209.073 19.998 9.781 19.861 20.99-.532 43.657-36.212 79.009-79.994 79.009h-352c-44.183 0-80-35.817-80-80v-256.516c0-21.145 8.371-41.43 23.284-56.421l94.919-95.414c14.914-15.029 35.611-23.649 56.784-23.649h257.013c44.183 0 80 35.817 80 80v251.521c-1.004 26.939-38.752 27.256-40 .479z" fill="url(#SVGID_1_)"/></svg>